<svg version="1.0" xmlns="http://www.w3.org/2000/svg"
 width="665.000000pt" height="888.000000pt" viewBox="0 0 665.000000 888.000000"
 preserveAspectRatio="xMidYMid meet">

<g transform="translate(0.000000,888.000000) scale(0.100000,-0.100000)"
fill="#000000" stroke="none">
<path d="M5905 8828 c-132 -3 -258 -8 -280 -11 -89 -10 -171 -19 -195 -23 -82
-11 -112 -16 -170 -25 -36 -6 -76 -12 -90 -14 -14 -1 -47 -8 -75 -14 -27 -6
-63 -13 -79 -16 -16 -2 -52 -11 -80 -19 -28 -8 -62 -17 -76 -19 -44 -8 -151
-38 -168 -46 -98 -50 -128 -67 -172 -96 -27 -18 -71 -51 -97 -72 -66 -52 -348
-334 -414 -413 -30 -36 -63 -74 -74 -85 -12 -11 -40 -46 -64 -77 -60 -80 -76
-89 -126 -71 -68 24 -196 51 -275 58 -78 6 -110 23 -110 57 0 24 -27 78 -40
78 -13 0 -33 -23 -69 -79 -18 -28 -36 -51 -40 -51 -3 -1 -67 -2 -141 -4 -74
-2 -157 -8 -185 -14 -27 -6 -100 -19 -161 -28 l-110 -18 -155 125 c-84 68
-166 133 -180 144 -15 11 -77 60 -139 108 -187 148 -222 154 -431 78 -75 -28
-176 -61 -225 -75 -103 -30 -378 -82 -479 -91 -38 -4 -83 -9 -100 -12 -16 -2
-52 -6 -80 -8 -27 -2 -77 -6 -110 -9 -33 -3 -127 -10 -210 -16 -387 -27 -408
-29 -432 -46 -29 -19 -31 -79 -4 -132 35 -68 193 -184 316 -232 33 -12 74 -29
90 -35 17 -7 41 -16 55 -19 14 -4 50 -13 80 -21 70 -19 152 -32 260 -41 114
-9 101 -9 224 0 211 15 382 59 543 140 106 54 185 116 263 210 83 98 109 102
238 30 37 -21 83 -46 102 -56 19 -11 60 -34 90 -53 30 -19 65 -39 78 -44 12
-6 22 -18 22 -27 0 -9 -41 -57 -91 -107 -115 -116 -197 -229 -269 -371 -47
-93 -118 -265 -112 -273 1 -2 -6 -22 -14 -45 -9 -24 -17 -50 -19 -58 -31 -133
-35 -138 -115 -139 -70 -2 -195 -36 -258 -71 -90 -51 -140 -117 -181 -245 -23
-73 -21 -346 3 -479 33 -174 8 -322 -113 -686 -95 -283 -112 -341 -127 -418
-8 -41 -17 -78 -20 -84 -3 -5 -54 -32 -113 -60 -179 -85 -286 -162 -426 -307
-44 -45 -93 -89 -109 -98 -16 -8 -63 -17 -105 -20 -89 -6 -120 -18 -141 -55
-13 -25 -13 -32 4 -80 10 -29 32 -72 49 -96 25 -34 33 -57 38 -111 11 -123 50
-170 119 -141 30 12 89 71 109 108 8 15 21 22 41 22 48 0 109 30 125 61 8 15
15 48 15 73 0 36 -6 52 -30 79 -16 19 -30 40 -30 47 0 47 340 245 380 220 6
-4 9 -22 6 -46 -9 -67 -17 -147 -21 -204 -2 -30 -7 -66 -10 -80 -9 -37 -10
-604 -1 -685 44 -410 50 -465 71 -580 14 -82 57 -304 71 -365 3 -14 7 -42 9
-62 3 -36 3 -37 -22 -27 -14 5 -40 20 -57 32 -61 44 -166 100 -173 93 -3 -3
-7 -62 -9 -131 -2 -70 -6 -135 -9 -144 -3 -10 -31 -28 -63 -41 -91 -37 -192
-103 -192 -127 0 -6 46 -21 86 -27 84 -13 104 -19 111 -29 9 -15 5 -160 -8
-245 -6 -41 -8 -76 -5 -79 5 -5 13 -1 129 62 65 35 213 91 267 101 14 3 32 7
40 9 8 3 41 -1 72 -9 101 -24 172 -92 308 -296 74 -112 106 -155 177 -234 29
-33 62 -78 74 -102 29 -61 59 -259 55 -370 -4 -115 -18 -134 -102 -134 -151 0
-204 -127 -99 -236 l44 -45 -6 -103 -6 -103 43 -43 c42 -42 42 -42 106 -38 73
5 97 21 126 87 15 35 17 53 10 93 -5 26 -7 50 -3 52 3 2 26 9 49 16 58 15 129
80 142 130 18 66 -11 104 -92 124 -38 9 -60 33 -49 54 5 9 11 33 15 52 3 19
12 69 19 110 10 49 12 100 8 148 -4 47 -3 76 4 82 6 5 27 2 50 -7 78 -30 295
-82 372 -90 113 -12 338 3 486 33 139 28 328 85 423 129 71 33 100 44 137 55
26 8 29 6 58 -51 16 -34 44 -102 60 -152 26 -77 31 -108 31 -192 1 -106 -13
-154 -50 -174 -24 -12 -131 -29 -200 -30 -13 -1 -39 -16 -58 -35 -40 -40 -45
-85 -15 -145 20 -39 52 -58 106 -63 l30 -3 -3 -62 c-1 -35 2 -82 8 -104 42
-157 221 -190 282 -53 16 37 37 133 38 177 0 4 13 7 28 7 39 0 72 18 102 53
19 24 24 42 24 85 0 48 -3 57 -29 78 -17 13 -40 24 -52 24 -91 0 -126 90 -79
202 62 147 45 317 -53 508 l-39 76 20 24 c11 14 39 45 62 70 119 127 212 287
247 425 14 55 17 103 15 220 -3 159 -18 245 -71 395 -38 109 -46 133 -50 150
-2 8 -8 29 -15 45 -6 17 -23 75 -36 130 -39 155 -44 467 -11 675 14 90 21 118
33 142 l14 28 48 -19 c147 -59 321 -172 394 -256 23 -26 22 -37 -4 -71 -17
-20 -23 -41 -22 -74 1 -78 44 -122 132 -134 57 -8 58 -8 65 -59 4 -25 11 -55
18 -68 26 -55 125 -106 183 -93 67 14 117 97 98 167 -13 52 -10 59 50 94 70
41 88 80 64 138 -20 48 -67 67 -171 70 -124 4 -235 64 -320 173 -41 53 -139
136 -273 232 -51 36 -92 72 -92 81 0 23 37 58 68 65 52 11 161 55 186 75 13
10 28 19 33 19 5 0 38 28 74 62 68 65 108 125 129 193 17 53 37 75 70 75 28 0
75 15 145 46 49 22 70 19 116 -12 58 -40 223 -102 312 -118 111 -21 334 -14
437 13 94 24 195 58 235 78 98 51 193 149 216 225 15 49 39 52 114 15 67 -33
112 -64 169 -116 55 -51 29 -7 -34 57 -35 35 -77 64 -131 89 -87 41 -84 37
-94 145 -6 63 -5 67 17 74 65 20 253 -6 328 -46 11 -6 20 -9 20 -6 0 2 -24 18
-52 34 -71 40 -146 56 -217 47 -110 -14 -102 -17 -141 56 -19 36 -43 77 -53
92 -38 53 -177 142 -254 162 -41 10 -53 24 -53 60 0 49 -38 95 -118 145 -56
34 -85 62 -124 115 -94 129 -263 283 -431 394 -84 55 -165 110 -180 122 -33
26 -33 33 7 174 39 134 59 316 51 458 -4 66 -8 124 -9 130 -2 7 -6 35 -10 62
-5 28 -19 97 -32 155 -14 58 -27 115 -29 126 -5 21 0 22 90 29 52 4 95 11 95
16 0 5 -6 9 -14 9 -32 0 -282 113 -361 163 -208 131 -379 327 -459 525 -12 31
-26 57 -32 59 -15 5 -114 -87 -114 -106 0 -9 7 -26 15 -38 17 -24 47 -103 39
-103 -5 0 -29 12 -69 33 -16 9 -46 24 -65 32 -96 43 -102 51 -75 99 52 90 172
220 370 399 140 127 170 141 295 139 52 -1 111 -5 130 -8 82 -14 269 -22 460
-18 239 5 253 6 385 29 152 26 201 37 290 67 114 38 195 75 307 144 119 73
174 127 184 179 6 35 4 41 -23 65 -32 28 -25 27 -223 34 -19 0 -143 -2 -275
-6z m-2380 -1008 c84 -12 268 -69 362 -111 74 -33 276 -130 282 -135 2 -2 -17
-26 -41 -53 -202 -225 -306 -674 -253 -1088 20 -151 46 -245 100 -359 57 -123
109 -196 193 -276 85 -80 188 -142 302 -181 77 -27 93 -29 170 -23 47 3 117
15 155 27 39 11 84 24 100 28 56 13 1 20 -72 10 -62 -9 -175 -5 -196 8 -4 2
14 18 40 35 26 17 90 72 141 124 l92 94 52 -26 c155 -78 375 -239 467 -340 78
-86 84 -94 80 -99 -3 -2 -50 2 -104 10 -469 69 -670 82 -1042 66 -478 -20
-717 -59 -892 -147 -88 -44 -125 -91 -123 -160 1 -82 88 -199 335 -453 86 -90
157 -167 157 -172 0 -33 -207 -54 -388 -39 -513 42 -854 240 -873 505 l-4 50
88 6 c125 9 130 23 12 39 -90 12 -95 14 -90 34 11 39 48 131 57 140 16 19 8
34 -34 61 -85 56 -235 170 -313 238 -138 121 -215 209 -270 310 -30 55 -39 83
-43 137 -7 105 -4 108 75 66 37 -20 71 -36 76 -36 28 0 -88 129 -148 165 -49
28 -155 55 -223 55 -52 0 -107 -22 -121 -48 -14 -26 -20 -91 -10 -98 5 -3 29
9 52 26 50 35 138 51 175 31 29 -15 28 -44 -3 -156 -33 -122 -46 -219 -46
-351 0 -156 21 -265 98 -518 5 -15 2 -17 -17 -11 -16 5 -21 4 -18 -6 3 -8 15
-15 27 -17 17 -3 31 -22 60 -85 241 -524 627 -854 1146 -981 39 -10 86 -21
105 -27 85 -22 309 -33 443 -21 240 22 361 62 637 209 107 57 152 69 209 53
45 -12 111 -78 111 -111 0 -69 -286 -213 -580 -292 -162 -45 -447 -87 -581
-87 -109 0 -116 -16 -18 -42 76 -20 232 -23 334 -6 39 6 90 12 115 12 44 1 45
0 48 -31 2 -18 -4 -71 -13 -117 -45 -245 -55 -460 -30 -666 21 -165 52 -283
126 -481 61 -161 98 -318 99 -415 1 -164 -75 -365 -193 -510 -219 -270 -487
-422 -882 -499 -115 -23 -168 -28 -300 -29 -92 0 -190 5 -230 12 -178 34 -257
55 -293 82 -43 31 -90 113 -122 213 -12 37 -25 67 -29 67 -5 0 -1 -35 7 -77
10 -55 15 -149 15 -313 1 -224 0 -239 -25 -325 -30 -103 -26 -119 31 -135 56
-15 91 -46 91 -80 0 -52 -72 -100 -150 -100 -44 0 -45 -2 -29 -70 7 -31 7 -58
-2 -95 -14 -61 -34 -85 -68 -85 -81 0 -120 122 -71 222 26 53 26 55 -9 73 -50
25 -91 76 -91 112 0 45 30 63 106 63 34 0 70 3 79 6 28 11 43 57 56 174 11
100 10 133 -5 248 -26 208 -45 249 -215 451 -122 146 -151 186 -243 341 -263
438 -398 873 -398 1283 l0 79 32 -24 c76 -58 142 -73 184 -43 43 29 58 82 57
190 -1 121 -26 222 -84 342 -33 69 -56 99 -138 181 -89 88 -100 103 -106 143
-10 70 12 385 30 419 16 31 80 73 128 84 42 10 22 26 -33 26 -71 0 -146 -18
-225 -54 -78 -36 -328 -201 -382 -252 -35 -34 -40 -61 -13 -74 87 -40 96 -51
86 -103 -8 -42 -29 -53 -80 -39 -43 12 -52 6 -100 -70 -20 -31 -45 -59 -55
-63 -54 -17 -82 47 -56 131 19 63 20 58 -20 73 -19 7 -47 27 -61 46 -21 28
-23 37 -14 54 17 32 68 53 140 59 36 2 79 11 95 20 17 8 82 65 145 126 121
118 225 194 344 251 74 36 243 95 271 95 26 0 17 17 -12 23 -70 14 -88 60 -63
162 27 108 59 223 85 305 13 41 31 102 40 135 47 171 105 326 138 369 14 19
15 18 35 -20 17 -33 55 -64 79 -64 11 0 -6 46 -60 170 -159 357 -155 576 13
762 35 39 72 68 118 90 64 32 71 33 182 33 91 -1 127 -5 175 -22 33 -12 61
-20 63 -18 2 2 -8 20 -23 39 -32 42 -45 135 -27 194 102 340 191 510 349 664
140 138 270 205 483 252 83 18 240 31 240 20 0 -15 -146 -104 -228 -140 -44
-19 -120 -44 -168 -55 -161 -37 -156 -35 -99 -44 28 -4 53 -9 57 -11 3 -2 -8
-34 -26 -72 -107 -219 -147 -504 -115 -813 39 -385 207 -729 429 -875 22 -15
39 -28 38 -30 -6 -5 -212 25 -308 46 -109 23 -110 23 -110 12 0 -10 149 -77
213 -96 97 -29 220 -40 314 -27 219 28 360 134 424 320 118 339 165 743 124
1058 -36 268 -122 469 -273 636 -62 67 -73 91 -49 100 21 9 139 7 212 -3z
m-231 -113 c86 -105 155 -256 205 -450 107 -409 97 -877 -24 -1124 -158 -322
-452 -361 -662 -88 -106 137 -170 310 -219 590 -26 144 -26 486 0 605 29 139
75 265 110 305 28 33 38 37 104 46 41 5 92 13 115 19 69 18 197 71 257 106 30
18 60 33 67 34 6 0 27 -19 47 -43z m1111 -242 c131 -107 210 -164 310 -225
122 -74 165 -129 199 -255 44 -168 60 -529 30 -700 -31 -182 -85 -296 -194
-406 -100 -101 -166 -134 -270 -134 -63 0 -85 5 -131 28 -209 106 -357 344
-404 649 -28 183 -29 307 -7 473 31 229 85 378 187 512 44 60 141 153 157 153
5 0 60 -43 123 -95z m-2451 -1548 l48 -93 -58 -82 c-38 -55 -61 -79 -67 -73
-16 16 -14 259 1 304 8 20 17 37 20 37 4 0 29 -42 56 -93z m372 -430 c38 -24
77 -47 87 -50 23 -9 22 -16 -27 -142 l-43 -110 -152 4 c-222 5 -211 1 -243 99
-15 45 -34 123 -43 173 -18 101 -18 98 45 169 17 19 45 54 63 77 l32 41 106
-108 c59 -60 137 -128 175 -153z m207 -113 c18 -9 33 -18 35 -19 2 -1 -11 -27
-29 -56 -17 -30 -37 -70 -44 -89 -11 -32 -15 -35 -46 -32 -19 2 -35 5 -36 6
-8 8 64 206 75 206 7 0 27 -7 45 -16z m-398 -230 c55 -7 117 -14 137 -14 20 0
39 -3 41 -7 2 -5 -18 -64 -45 -133 -64 -165 -66 -170 -75 -170 -12 0 -92 129
-159 257 -42 80 -45 100 -15 87 9 -3 61 -12 116 -20z m335 -62 c0 -148 99
-292 288 -419 84 -56 84 -56 77 -92 -16 -88 -74 -251 -90 -251 -2 0 -43 23
-90 51 -105 62 -242 174 -315 260 -86 100 -82 91 -65 135 8 21 35 104 60 184
25 80 48 151 50 158 3 7 21 12 45 12 40 0 40 0 40 -38z m3417 -16 c165 -77
258 -209 251 -353 l-3 -58 -37 3 c-23 2 -38 -1 -38 -7 0 -6 4 -11 9 -11 5 0
21 -4 35 -10 24 -9 25 -11 13 -44 -46 -131 -202 -237 -405 -273 -118 -21 -336
-13 -447 16 -110 29 -189 70 -193 99 -5 31 1 37 153 152 190 144 338 273 457
400 115 123 120 125 205 86z m-2887 -516 c140 -46 215 -61 335 -68 l110 -7 -3
-110 c-1 -60 -5 -134 -9 -164 l-6 -54 -126 6 c-84 4 -158 14 -221 30 -116 30
-260 86 -260 101 0 6 11 45 23 86 13 41 32 105 42 143 10 37 19 67 21 67 1 0
43 -13 94 -30z m1099 -96 c58 -31 121 -66 139 -77 l33 -19 -33 -23 c-71 -47
-197 -108 -280 -136 -117 -38 -284 -62 -374 -54 l-71 7 -7 82 c-8 111 -8 236
2 237 93 11 373 36 421 38 60 1 71 -3 170 -55z m146 -751 c56 -34 159 -109
196 -143 10 -8 48 -42 85 -75 38 -33 107 -101 154 -151 82 -89 86 -91 120 -85
19 3 64 6 99 6 50 0 66 -4 75 -17 9 -15 5 -23 -20 -49 -17 -16 -48 -36 -70
-44 -29 -10 -38 -18 -36 -32 2 -10 6 -44 9 -75 5 -51 3 -59 -20 -82 -15 -14
-31 -26 -38 -26 -6 0 -28 17 -49 38 -30 30 -40 48 -45 87 -10 73 -9 72 -64 73
-59 2 -108 20 -135 51 -18 20 -19 23 -3 55 9 19 30 42 46 52 17 10 31 23 31
29 0 6 -17 27 -37 46 -49 46 -188 159 -196 159 -12 0 -190 125 -218 153 -33
33 -36 52 -11 66 24 15 58 5 127 -36z m-3210 -1338 c22 -17 70 -52 106 -78 36
-25 73 -57 82 -70 9 -14 23 -79 33 -151 17 -125 17 -128 -3 -154 -14 -19 -31
-28 -54 -30 -87 -6 -167 -26 -220 -53 -92 -46 -105 -37 -74 51 8 23 15 64 15
90 0 56 -27 88 -84 97 -20 3 -36 9 -36 14 0 10 77 49 97 49 7 0 28 14 48 31
29 26 35 38 35 70 0 22 -7 56 -15 76 -8 19 -15 51 -15 70 0 31 2 34 23 27 12
-4 40 -21 62 -39z m2752 -1167 c55 -60 93 -181 93 -296 0 -67 -24 -217 -46
-284 -8 -26 -14 -62 -12 -80 l3 -33 70 -6 c77 -6 110 -19 117 -47 13 -47 -27
-81 -99 -84 -42 -2 -49 -11 -57 -78 -8 -66 -51 -149 -88 -169 -88 -50 -162 95
-109 214 26 58 26 55 -1 55 -36 0 -118 32 -144 57 -34 31 -30 56 10 78 27 15
48 17 118 13 l84 -6 23 34 c76 110 75 269 -1 521 -17 55 -28 108 -25 117 9 23
40 20 64 -6z"/>
<path d="M2847 5272 c-33 -36 -16 -92 28 -92 28 0 45 19 45 50 0 26 -26 60
-47 60 -5 0 -17 -8 -26 -18z"/>
<path d="M2775 4994 c-37 -38 0 -124 43 -98 35 22 21 114 -18 114 -5 0 -16 -7
-25 -16z"/>
<path d="M3110 4890 c-11 -11 -20 -29 -20 -40 0 -21 33 -60 50 -60 17 0 50 39
50 60 0 21 -33 60 -50 60 -5 0 -19 -9 -30 -20z"/>
<path d="M2929 7127 c-58 -49 -89 -134 -89 -247 0 -159 74 -286 156 -266 132
34 169 367 54 496 -20 22 -29 28 -24 15 4 -11 9 -45 11 -75 4 -63 -12 -103
-44 -108 -53 -8 -77 121 -34 179 26 35 8 39 -30 6z"/>
<path d="M4187 6971 c-44 -48 -57 -91 -64 -199 -10 -153 46 -282 123 -282 136
0 184 354 66 482 -27 29 -45 30 -21 2 21 -25 17 -129 -6 -154 -10 -11 -24 -20
-31 -20 -37 0 -60 135 -29 176 37 49 7 45 -38 -5z"/>
<path d="M5664 4705 c-33 -50 12 -111 62 -84 31 16 39 43 24 80 -16 38 -62 41
-86 4z"/>
</g>
</svg>
